<?xml version="1.0" encoding="utf-8" ?><svg xmlns="http://www.w3.org/2000/svg" xmlns:xlink="http://www.w3.org/1999/xlink" width="2048" height="1024" viewBox="0 0 2048 1024"><path fill="white" d="M606.045 126.412C652.263 121.543 710.136 130.349 754.339 143.946C806.753 160.069 854.975 189.704 906.273 208.79C924.061 215.409 948.197 213.063 959.101 195.353C965.885 183.579 957.869 173.791 947.78 168.421C922.568 168.363 905.764 179.179 884.925 191.954C872.933 187.972 859.876 181.151 848.311 175.661C891.629 143.064 936.586 127.077 991.616 128.948C1091.69 132.351 1114.37 251.299 1045.5 311.787C974.494 374.144 834.074 342.114 842.638 231.226C811.772 272.863 786.505 310.133 764.956 358.016C756.726 375.945 750.223 394.616 745.533 413.778C744.772 416.869 743.7 423.75 741.691 425.578C703.737 438.362 667.121 449.021 628.846 460.626C657.834 391.721 709.726 287.563 762.862 233.458C693.077 226.64 608.343 228.529 592.772 314.778C590.987 328.533 590.473 343.421 590.646 357.359C591.422 420.061 543.835 483.271 479.032 489.293C413.221 495.408 360.609 447.612 355.664 381.859C351.191 322.37 372.876 267.53 410.214 221.592C460.628 160.567 529.138 133.008 606.045 126.412Z"/><path fill="white" d="M1204.53 127.296C1207.94 127.043 1211.66 127.51 1214.99 128.187C1223.51 129.917 1230.76 135.121 1235.52 142.331C1245.23 157.051 1245.5 179.212 1244.37 196.187C1237.62 297.083 1162.15 437.883 1109.56 524.275C1093.91 549.977 1034.57 635.98 1030.39 658.786C1029.61 663.041 1030.52 667.815 1033.08 671.36C1035.02 674.05 1037.98 675.478 1041.2 675.973C1046.67 676.812 1052.03 674.722 1056.31 671.41C1059.03 669.306 1061.13 666.647 1061.43 663.101C1062.01 656.205 1055.83 649.881 1051.89 644.85L1052.3 643.194C1055.44 640.656 1059.39 639.655 1063.24 638.387C1063.75 638.502 1064.26 638.623 1064.76 638.749C1115.17 651.212 1079.36 744.11 1041.16 764.245C995.352 788.39 940.044 766.224 942.93 712.431C946.261 650.332 973.416 580.472 990.058 520.394L963.236 519.997C971.424 562.865 964.599 596.682 944.181 635.534C923.03 673.816 889.233 711.063 845.581 723.068C787.66 738.997 734.308 716.414 716.569 657.825C700.529 572.453 770.984 474.874 857.779 466.186C848.776 482.751 845.6 497.289 847.055 515.921C823.555 538.042 805.121 586.556 827.122 616.439C841.154 633.394 865.67 626.031 879.322 613.684C910.217 585.743 932.687 527.244 902.035 491.842C902.777 500.59 911.2 519.737 910.263 524.125C907.681 536.216 878.357 537.341 868.552 533.96C829.66 520.546 867.683 452.404 883.842 432.981C904.055 408.44 938.353 397.361 968.896 409.27C986.87 416.278 1000.32 429.935 993.035 451.45C986.457 466.696 966.222 474.613 956.148 457.717C951.772 450.378 949.442 438.246 941.326 435.747C923.271 430.187 911.326 453.539 906.096 466.968C923.707 470.045 934.994 477.186 947.021 489.849C963.1 489.188 983.415 489.942 999.799 490.104C1020.53 429.426 1043.68 364.84 1070.59 306.591C1092.84 258.428 1146.76 134.79 1204.53 127.296Z"/><path fill="white" d="M1356.26 127.249C1363.36 126.924 1370 128.22 1376.11 131.996C1385.71 137.93 1390.78 147.797 1393.35 158.459C1413.87 243.502 1326.56 421.247 1282.67 493.055C1295.32 492.821 1309.59 493.379 1322.35 493.625C1329.34 473.897 1338.07 454.875 1344.97 435.154C1358.77 431.417 1378.31 427.873 1392.84 424.815L1487.22 405.059C1459.34 462.739 1428.43 518.908 1402.27 577.587C1392.54 599.404 1379.43 625.001 1374.68 648.672C1374.07 651.71 1374.38 657.012 1376.48 659.485C1381.37 665.031 1390.83 661.54 1397.08 662.532C1408.52 664.345 1402.64 680.488 1400.63 687.407C1389.91 724.268 1337.54 756.018 1300.5 743.068C1288.19 738.716 1278.13 729.617 1272.57 717.8C1268.79 709.707 1266.83 700.881 1266.84 691.946C1266.51 652.954 1295.6 567.894 1309.02 530.202L1312.82 520.007C1298.22 520.245 1282.77 519.913 1268.11 519.835C1251.33 548.897 1197.57 627.707 1191.84 653.501C1190.55 659.285 1190.75 666.052 1194.14 671.124C1196.49 674.631 1199.39 676.65 1203.58 677.345C1209.11 678.264 1214.83 676.117 1219.27 672.886C1222.64 670.441 1224.82 667.15 1225.44 663.005C1226.78 653.954 1222.01 647.151 1216.96 640.263L1217.88 638.55C1236.63 627.838 1253.18 647.193 1256.38 664.648C1262.68 698.952 1253.04 728.698 1235.69 757.797C1211.38 798.568 1164.2 814.908 1121.82 791.759C1108.2 783.404 1098.93 765.339 1096.56 749.937C1089.37 703.262 1107.85 648.177 1120.23 603.605C1150.34 495.194 1187.73 388.259 1233.74 285.615C1255.3 237.526 1282.47 186.189 1319.31 148.153C1329.5 137.74 1341.83 130.065 1356.26 127.249Z"/><path fill="white" d="M414.423 503.416C426.991 501.513 445.726 504.731 458.143 507.766C467.725 510.107 481.844 517.249 471.802 528.722C466.525 534.75 458.831 540.523 452.468 545.913C417.047 575.921 391.03 628.445 412.423 673.776C431.653 713.448 489.141 721.458 525.622 702.373C549.466 690.462 570.883 661.556 575.367 634.9C580.606 603.749 586.084 578.124 595.746 547.598C629.839 532.626 681.93 516.847 717.74 506.048C707.302 530.614 699.564 556.241 694.66 582.478C691.765 597.924 690.395 615.948 688.143 631.769C684.755 656.313 679.471 680.557 672.339 704.284C661.844 734.827 648.602 762.395 627.777 787.481C589.402 833.521 534.197 862.285 474.477 867.356C419.779 872.251 364.438 856.622 322.185 821.101C284.6 789.725 261.107 744.635 256.928 695.854C248.628 599.61 316.746 511.598 414.423 503.416Z"/><path fill="white" d="M1612.91 404.427C1648.75 400.008 1695.6 416.511 1721.99 441.003C1791.07 505.13 1765.39 621.019 1707.49 683.349C1672.71 720.789 1626.03 743.572 1574.94 745.359C1574.57 745.402 1574.21 745.436 1573.84 745.463C1539.82 748.058 1494.49 733.648 1469.01 711.059C1398.87 648.872 1420.68 538.095 1476.9 474.254C1514.17 431.926 1556.57 408.623 1612.91 404.427Z"/><path fill="white" d="M1426.98 725.347C1466.89 721.909 1498.14 752.979 1483.17 793.639C1473.45 820.04 1440.28 840.028 1415.16 850.02C1285.74 901.493 1138.17 871.179 1005.46 849.133C961.718 841.933 917.868 828.881 873.343 832.095C832.141 835.069 818.809 857.583 786.414 875.716C771.116 884.278 748.005 881.299 731.568 874.758C713.371 865.399 699.157 851.244 696.439 830.044C691.671 792.851 723.347 769.874 753.318 757.751C815.704 732.518 872.347 752.96 932.245 772.742C959.769 781.968 987.513 790.525 1015.45 798.407C1073.96 814.544 1149.46 830.094 1210.56 826.371C1257.66 823.502 1305.42 800 1342.77 772.075C1372.99 749.489 1387.67 730.716 1426.98 725.347Z"/><path fill="white" d="M841.539 326.452C879.971 324.782 898.572 359.494 888.51 391.879C868.762 455.443 764.976 483.854 709.15 500.94C689.277 507.054 669.472 513.392 649.74 519.95C604.454 534.96 543.858 555.874 502.966 579.128C507.418 553.868 522.241 543.317 541.661 529.601C458.522 561.138 527.848 617.112 478.998 662.19C474.107 665.546 469.769 667.916 463.894 669.19C454.517 671.26 444.702 669.387 436.747 664.008C407.078 644.054 423.997 598.208 442.315 576.221C507.148 498.406 615.194 474.045 707.213 444.215C747.455 431.169 804.185 418.173 828.968 381.833C812.373 395.176 801.295 402.36 781.17 410.188C780.418 366.828 792.174 330.54 841.539 326.452Z"/><path fill="white" d="M1475.77 181.268C1482.95 180.345 1494.02 182.768 1500.12 186.404C1530.63 204.752 1528.13 245.748 1521.83 275.812C1513.09 317.584 1495.43 364.486 1450.52 377.694C1425.16 380.428 1405.77 368.189 1402.19 342.119C1394.68 287.301 1411.03 194.338 1475.77 181.268Z"/><path fill="white" d="M695.417 694.686C702.843 701.088 701.083 715.022 699.342 723.574C687.502 780.346 653.501 830.049 604.88 861.66C560.891 890.776 503.254 903.101 451.404 892.495L437.276 889.114C487.943 889.948 529.842 886.738 575.485 860.849C643.954 822.013 674.837 767.729 695.417 694.686Z"/><path fill="white" d="M1781.25 529.816C1781.44 529.957 1781.9 530.268 1782.03 530.577C1791.03 552.428 1791.79 586.589 1788.77 608.166C1781.4 660.854 1754.97 701.453 1712.93 732.804C1672.1 763.258 1626.23 774.256 1576.27 767.155L1564.42 764.275C1573.87 764.074 1582.93 763.819 1592.35 762.939C1713.91 751.586 1792.97 649.976 1781.25 529.816Z"/><path fill="white" d="M1509.26 775.791C1515.31 782.162 1516.57 797.909 1515.47 806.524C1505.31 885.75 1387.33 902.508 1324.24 896.194C1321.68 896.075 1320.43 895.819 1317.91 895.293L1318.14 894.529C1378.08 888.959 1451.57 876.758 1492.58 827.597C1503.98 813.919 1511.37 793.73 1509.26 775.791Z"/><path fill="white" d="M690.09 246.487L691.091 246.474C690.931 247.562 682.503 250.975 680.843 251.727C662.22 260.158 647.439 270.884 637.136 288.877C620.833 317.348 628.066 345.956 625.814 376.314C624.216 396.677 618.287 416.463 608.424 434.349C597.616 454.141 578.637 477.55 556.103 484.116L554.397 482.362C555.767 479.799 558.781 478.199 561.067 476.345C588.661 453.961 612.904 412.362 614.854 376.441C616.799 340.618 609.737 306.164 635.005 275.734C648.979 258.906 668.45 248.804 690.09 246.487Z"/><path fill="white" d="M1539.94 205.551C1569.67 219.975 1561.41 267.597 1555.44 293.212C1545.35 336.478 1526.78 378.863 1480.25 390.822C1475.57 391.509 1470.15 391.831 1465.39 392.229C1520.98 373.78 1540.55 308.402 1546.61 256.019C1548.65 238.416 1548.1 221.577 1539.94 205.551Z"/><path fill="white" d="M1391.2 299.647C1392.34 302.787 1391.74 306.787 1392.05 310.095C1393.84 329.165 1386.51 343.773 1379.38 361.091C1370.33 382.734 1360.87 404.204 1351.01 425.488C1345.59 426.979 1339.77 428.855 1334.34 430.486C1333.88 426.133 1363.54 367.023 1367.47 358.14C1376.01 338.856 1383.6 319.306 1391.2 299.647Z"/><path fill="white" d="M868.346 849.381C876.458 848.713 882.422 849.053 890.591 849.438C855.156 855.889 841.513 861.776 815.05 885.359C810.06 889.308 805.775 891.376 800.192 894.338C818.857 866.098 834.145 853.18 868.346 849.381Z"/><path fill="white" d="M1407.96 142.956C1408.94 143.666 1409.87 144.433 1410.75 145.256C1428.23 161.483 1427.66 176.907 1428.58 198.831L1420.27 210.947C1418.76 213.398 1416.98 215.514 1415.19 217.77C1420.52 189.938 1418.45 168.73 1407.96 142.956Z"/><path fill="white" d="M1255.38 141.505C1274.48 146.827 1275.95 174.58 1276.27 190.667L1268.56 202.484C1267.16 204.98 1266.88 205.507 1264.85 207.508C1264.16 204.482 1264.96 196.114 1265.07 192.494C1265.63 173.251 1265.09 158.405 1255.38 141.505Z"/><path fill="white" d="M1046.81 339.106L1047.16 339.421C1047.42 342.113 1044.29 347.205 1042.88 349.935C1012.37 362.481 997.297 363.425 965.127 360.72C963.968 360.206 963.432 360.23 962.907 359.347C999.266 358.795 1014.15 355.289 1046.81 339.106Z"/><path fill="white" d="M1263.98 740.438L1266.63 742.412C1269.6 749.498 1261.45 763.024 1257.63 769.247C1248.92 783.45 1237.8 794.707 1223.49 803.165L1222.27 803.675C1221.61 801.807 1235.2 790.747 1237.84 787.43C1248.98 773.457 1258.67 757.431 1263.98 740.438Z"/><path fill="white" d="M1093.77 178.822C1098.58 182.53 1107.82 196.007 1110.08 201.904C1112.24 207.529 1111.79 206.802 1109.89 211.802L1108.76 212.621C1107.84 212.066 1095.87 182.869 1093.77 178.822Z"/></svg>