<?xml version="1.0" encoding="utf-8" ?><svg xmlns="http://www.w3.org/2000/svg" xmlns:xlink="http://www.w3.org/1999/xlink" width="2048" height="1024" viewBox="0 0 2048 1024"><path fill="white" d="M1673.57 445.386C1676.48 444.911 1683.87 444.803 1687.03 444.655C1731.18 442.585 1779.13 457.719 1811.64 488.458C1841.5 516.332 1859 554.981 1860.23 595.814C1861.61 646.249 1841.36 691.563 1806.64 727.956C1715.73 823.236 1552.54 844.901 1427.5 848.891C1348.05 851.426 1184.53 842.868 1124.43 785.302C1162.07 799.579 1207.36 797.289 1237.33 766.455C1241.94 761.706 1247.08 749.794 1250 747.211L1253.26 748.858C1296.36 779.044 1382.26 780.819 1433.97 776.323C1505.17 769.716 1574.5 749.187 1632.56 706.034C1667.77 679.866 1692.61 624.611 1662.89 584.959C1641.08 555.854 1593.1 571.468 1598.06 610.026C1601.3 635.202 1633.46 631.706 1635.83 656.462C1638.21 679.541 1622.45 699.652 1605.37 713.225C1551.07 756.684 1482.18 708.397 1476.93 646.227C1467.99 540.565 1577.6 455.896 1673.57 445.386Z"/><path fill="white" d="M677.558 322.899C695.397 328.704 712.904 335.486 730 343.211C728.347 345.709 726.289 348.412 724.412 350.766C705.217 374.843 689.619 400.672 673.723 426.999C689.137 426.887 738.275 423.066 749.053 432.619C751.758 435.016 753.333 438.234 753.429 441.856C753.615 448.933 749.593 455.881 744.752 460.767C740.9 464.656 736.091 467.936 730.798 469.466C716.145 473.703 670.595 471.225 652.859 471.166C639.25 500.525 626.068 548.39 616.19 580.368C589.796 665.82 545.927 766.963 467.909 817.69C424.148 846.616 370.519 856.538 319.306 845.181C271.803 834.98 230.194 806.56 203.412 766.023C177.081 725.29 169.55 672.881 179.751 625.777C185.675 599.846 198.238 575.9 216.207 556.289C260.948 507.811 338.513 488.671 392.206 536.323C421.899 562.676 430.801 618.902 403.228 649.544C397.997 655.357 384.236 662.847 375.916 662.01C366.497 661.219 361.877 661.389 364.571 651.114C369.606 631.915 362.082 604.374 337.877 605.585C299.335 607.514 296.953 650.347 321.959 672.277C331.721 680.882 344.478 685.299 357.471 684.574C370.087 683.913 382.181 679.322 392.057 671.444C420.131 648.602 448.922 602.017 471.666 572.254C501.571 533.12 530.98 494.658 563.631 457.579C539.934 450.139 552.327 425.743 572.447 426.912C577.219 427.19 583.591 426.807 588.563 426.82C616 392.38 648.151 355.72 677.558 322.899Z"/><path fill="white" d="M824.062 221.806L824.57 221.037C841.649 195.656 884.915 180.705 914.241 174.612C977.389 161.383 1059.79 185.509 1075.08 255.904C1080.69 281.773 1070.8 316.049 1055.36 336.92C997.666 414.864 905.094 415.25 822.375 380.9C751.913 351.641 697.183 300.219 619.813 288.604C577.085 282.19 524.862 281.84 496.952 321.415C488.916 332.58 485.752 346.527 488.184 360.066C492.834 386.094 522.771 396.79 538.194 374.093C542.938 367.111 545.138 356.61 549.385 349.351C574.588 306.274 626.299 293.679 670.372 313.52C639.732 308.798 608.504 304.644 581.471 324.277C564.823 336.368 556.704 352.759 553.471 372.821C551.491 385.106 552.589 397.667 551.344 409.255C549.017 444.195 538.9 474.477 512.189 498.223C487.779 520.08 457.898 522.261 426.597 520.466C350.302 516.089 303.239 455.097 310.102 380.358C322.129 249.397 453.072 200.757 568.536 210.423C612.203 214.201 654.775 226.127 694.05 245.584C770.383 284.298 831.483 356.28 923.655 355.191C986.317 354.45 1015.88 281.701 977.346 234.95C959.715 213.562 927.331 203.543 900.729 201.25C867.666 198.756 851.672 206.613 824.062 221.806Z"/><path fill="white" d="M837.808 425.406C900.79 419.296 961.648 452.823 970.295 519.316C978.564 582.899 946.864 643.162 899.336 683.694C868.988 709.576 837.532 723.285 798.179 728.773C764.295 732.027 733.078 724.888 706.015 703.374C681.791 684.301 666.199 656.334 662.712 625.7C657.635 579.248 682.949 533.247 711.118 498.133C743.081 458.292 786.664 431.053 837.808 425.406Z"/><path fill="white" d="M1425.66 274.375C1483.72 267.251 1540.68 322.581 1473.52 358.473C1468.72 361.038 1452.43 375.883 1449.05 380.084C1386.78 457.471 1284.8 623.071 1335.93 722.966C1326.51 731.983 1315.13 736.158 1302.9 739.841C1298.79 740.997 1294.59 741.832 1290.34 742.338C1272.39 744.613 1254.27 739.654 1239.97 728.555C1215.38 709.233 1207.57 676.236 1214.02 646.478C1220.2 620.771 1227.23 595.514 1235.42 570.225C1261.92 488.374 1283.96 397.842 1336.19 328.066C1358.35 298.474 1389.17 278.848 1425.66 274.375Z"/><path fill="white" d="M1169.63 301.421C1193.96 298.726 1213.5 308.887 1227.65 328.152C1220.39 340.314 1206.86 354.836 1197.27 365.858C1188.18 376.309 1179.57 387.172 1171.48 398.412C1124.34 464.283 1017.65 672.184 1086.95 743.682C1070.26 760.381 1055.22 765.181 1031.69 766.24C988.181 766.628 955.494 740.49 951.559 696.047C948.584 662.454 962.411 628.972 970.825 596.886C976.401 575.622 982.087 554.298 987.888 533.097C1008.37 470.379 1034.6 403.954 1075.98 351.949C1098.76 323.322 1133.32 304.594 1169.63 301.421Z"/><path fill="white" d="M1271.54 311.288C1277.96 310.468 1321.55 312.557 1317.55 323.958C1314.7 332.09 1301.99 350.053 1296.69 358.823C1288.54 372.423 1280.79 386.254 1273.43 400.299C1236.93 471.687 1192.04 600.628 1202.22 683.689C1204.87 705.361 1216.03 722.654 1234.04 735.304C1216.09 758.527 1187.57 767.524 1159.24 768.125C1117.24 768.57 1085.18 742.621 1079.51 700.463C1073.79 657.957 1094.34 619.151 1108.62 579.17C1136.63 500.782 1165.53 418.41 1215.16 350.651C1231.57 328.248 1243.66 315.487 1271.54 311.288Z"/><path fill="white" d="M1487.03 479.59C1496.47 478.822 1516.72 477.854 1525.15 481.71C1528.06 485.84 1518.31 498.97 1515.36 503.038C1479.37 552.592 1428.11 662.508 1469 717.403C1448.49 741.111 1417.92 746.283 1388.3 739.687C1297.39 721.942 1337.59 579.218 1377.84 532.542C1408.37 497.125 1441.95 484.099 1487.03 479.59Z"/><path fill="white" d="M633.714 652.31C657.763 655.294 663.72 685.784 677.957 703.011C748.068 787.844 853.387 769.721 933.054 709.329C936.561 735.008 945.378 750.377 963.495 768.076C961.434 769.104 958.812 770.098 956.644 770.995C932.724 781.09 898.923 789.257 873.248 793.789C798.945 806.259 712.602 805.402 648.034 761.801C620.336 743.096 588.397 699.008 612.175 665.071C617.648 657.26 624.317 653.677 633.714 652.31Z"/><path fill="white" d="M576.573 745.16C601.335 743.356 609.153 762.035 624.278 776.632C665.416 816.309 734.317 820.626 789.002 821.849C857.178 823.374 926.816 810.738 990.601 787.204L1004.29 799.351C995.906 803.185 987.392 806.722 978.76 809.956C972.424 812.329 966.04 814.571 959.613 816.683C851.347 853.083 695.427 863.054 586.146 821.043C553.733 808.583 534.663 758.159 576.573 745.16Z"/><path fill="white" d="M824.062 221.806C829.288 222.389 847.677 216.511 855.811 215.387C889.09 210.923 921.059 215.107 948.912 235.316C977.518 256.07 987.827 299.035 966.092 328.528C955.891 342.37 942.323 345.999 925.834 347.894C929.047 346.002 933.093 344.902 936.438 342.927C962.519 327.527 968.514 299.643 949.241 275.733C924.819 253.952 899.881 270.702 908.605 302.778C864.395 272.852 826.222 268.627 779.388 294.451C766.856 285.706 754.274 277.033 741.642 268.432C757.649 255.618 774.965 244.53 793.302 235.354C799.002 232.54 822.548 224.105 824.062 221.806Z"/><path fill="white" d="M1489.64 361.212C1520.28 358.485 1547.27 381.268 1549.71 411.932C1552.16 442.595 1529.13 469.37 1498.45 471.537C1468.16 473.677 1441.8 451.007 1439.38 420.737C1436.97 390.467 1459.4 363.905 1489.64 361.212Z"/><path fill="white" d="M1590.42 359.15C1626.41 355.383 1641.74 387.418 1625.79 416.836C1612.36 441.586 1593.15 454.936 1567.02 463.268C1553.17 467.005 1541.29 468.793 1527.02 468.948C1580.55 430.985 1544.95 376.661 1590.42 359.15Z"/><path fill="white" d="M1089.53 746.526C1101.39 755.531 1106.62 765.122 1099.53 779.88C1095.42 788.351 1088.11 794.839 1079.21 797.914C1068.01 801.761 1056.04 799.943 1045.58 794.814C1034.8 789.514 1032.28 786.918 1024.04 778.3C1054.83 783.647 1078.01 779.233 1089.53 746.526Z"/></svg>